<svg width="500" height="100" viewBox="0 0 500 100" fill="none" xmlns="http://www.w3.org/2000/svg">
<path d="M85.8346 12.8532C65.5905 12.8532 49.1816 29.255 49.1816 49.4848C49.1816 69.7146 65.5905 86.1163 85.8346 86.1163C101.37 86.1163 114.648 76.4557 119.984 62.82H103.666V49.9668H135.327V50.9307L135.324 50.9442C134.55 77.602 112.689 98.9695 85.8346 98.9695C58.4919 98.9695 36.3241 76.8157 36.3241 49.4848C36.3241 22.1538 58.4919 0 85.8346 0C101.45 0 115.38 7.23295 124.444 18.5053L114.423 26.558C107.695 18.1907 97.3909 12.8532 85.8346 12.8532Z" fill="white"/>
<path d="M54.0046 98.9695L27.0023 52.2161L0 98.9695H54.0046Z" fill="#FF7A00"/>
<path d="M77.7912 38.2382C77.7912 33.8016 81.389 30.205 85.8271 30.205C90.2653 30.205 93.8631 33.8016 93.8631 38.2382C93.8631 42.6749 90.2653 46.2715 85.8271 46.2715C81.389 46.2715 77.7912 42.6749 77.7912 38.2382Z" fill="white"/>
<path fill-rule="evenodd" clip-rule="evenodd" d="M170.043 44.9861C155.131 44.9861 143.042 57.0707 143.042 71.9778C143.042 86.8849 155.131 98.9695 170.043 98.9695C184.955 98.9695 197.044 86.8849 197.044 71.9778C197.044 57.0707 184.955 44.9861 170.043 44.9861ZM155.899 71.9778C155.899 64.1693 162.232 57.8393 170.043 57.8393C177.854 57.8393 184.186 64.1693 184.186 71.9778C184.186 79.7863 177.854 86.1163 170.043 86.1163C162.232 86.1163 155.899 79.7863 155.899 71.9778Z" fill="#FF7A00"/>
<path fill-rule="evenodd" clip-rule="evenodd" d="M267.117 71.9778C267.117 57.0707 279.206 44.9861 294.118 44.9861C309.03 44.9861 321.119 57.0707 321.119 71.9778C321.119 86.8849 309.03 98.9695 294.118 98.9695C279.206 98.9695 267.117 86.8849 267.117 71.9778ZM294.118 57.8393C286.307 57.8393 279.975 64.1693 279.975 71.9778C279.975 79.7863 286.307 86.1163 294.118 86.1163C301.929 86.1163 308.262 79.7863 308.262 71.9778C308.262 64.1693 301.929 57.8393 294.118 57.8393Z" fill="#FF7A00"/>
<path d="M417.14 58.0872C413.45 57.4368 409.852 58.2739 406.941 60.1794C406.929 60.1924 406.915 60.2059 406.902 60.2197C406.615 60.5195 406.33 60.8874 406.143 61.2572C405.967 61.6035 405.944 61.8158 405.95 61.9445C405.954 62.0214 405.975 62.4608 406.6 63.3018L406.602 63.3045C406.648 63.3677 406.916 63.7304 408.367 64.072C409.791 64.4071 411.431 64.5323 413.756 64.7097C414.086 64.735 414.431 64.7613 414.791 64.7894L414.895 64.7975C419.72 65.1742 428.166 65.8335 433.242 73.1107C437.29 78.913 436.327 84.6616 434.451 88.482C433.565 90.2872 432.481 91.6965 431.655 92.6351C431.233 93.1145 430.854 93.4986 430.562 93.7783C430.504 93.8342 430.448 93.8862 430.397 93.9343L430.354 93.9742C430.293 94.0306 430.237 94.0809 430.188 94.1251C430.137 94.1703 430.093 94.2093 430.055 94.2418L430.025 94.2678L430.004 94.2859L429.982 94.3044L429.973 94.3127L429.968 94.3166C429.967 94.317 429.967 94.3174 429.938 94.2831C424.322 98.1269 417.236 99.8687 409.996 98.5926C401.706 97.1313 394.969 92.0259 391.148 85.2395L402.353 78.9354C404.366 82.5117 407.89 85.1699 412.228 85.9346C415.768 86.5585 419.221 85.814 422.066 84.0716C422.366 83.721 422.681 83.2829 422.909 82.8186C423.149 82.3301 423.216 81.9723 423.212 81.727C423.209 81.5568 423.179 81.1558 422.696 80.4625C421.497 78.7438 419.368 78.0394 413.789 77.6035C413.57 77.5863 413.342 77.5693 413.106 77.5518L412.861 77.5337C410.668 77.3718 407.905 77.1679 405.421 76.5832C402.418 75.8764 398.841 74.4164 396.277 70.9652C394.297 68.3001 393.246 65.4496 393.107 62.5638C392.97 59.7299 393.733 57.3068 394.669 55.4558C395.594 53.6284 396.746 52.2374 397.618 51.3275C398.065 50.8615 398.468 50.4909 398.779 50.2216C398.935 50.0863 399.071 49.9745 399.18 49.887C399.234 49.8432 399.282 49.8054 399.324 49.7735C399.344 49.7576 399.363 49.7432 399.38 49.7302L399.404 49.7119L399.415 49.7036L399.42 49.6997C399.421 49.6993 399.421 49.699 399.445 49.7295C405.058 45.8923 412.138 44.1541 419.373 45.4293C427.432 46.8498 434.025 51.7153 437.896 58.2207L426.845 64.7912C424.806 61.364 421.36 58.8309 417.14 58.0872Z" fill="white"/>
<path fill-rule="evenodd" clip-rule="evenodd" d="M329.155 71.9778C329.155 57.0707 341.244 44.9861 356.156 44.9861C371.068 44.9861 383.157 57.0707 383.157 71.9778C383.157 86.8849 371.068 98.9695 356.156 98.9695C341.244 98.9695 329.155 86.8849 329.155 71.9778ZM356.156 57.8393C348.345 57.8393 342.013 64.1693 342.013 71.9778C342.013 79.7863 348.345 86.1163 356.156 86.1163C363.967 86.1163 370.299 79.7863 370.299 71.9778C370.299 64.1693 363.967 57.8393 356.156 57.8393Z" fill="#FF7A00"/>
<path fill-rule="evenodd" clip-rule="evenodd" d="M460.398 78.4044C462.739 82.9823 467.503 86.1163 472.999 86.1163C475.759 86.1163 478.316 85.3327 480.482 83.9786L487.298 94.8769C483.148 97.4712 478.239 98.9695 472.999 98.9695C458.087 98.9695 445.998 86.8849 445.998 71.9778C445.998 57.0707 458.087 44.9861 472.999 44.9861C487.911 44.9861 500 57.0707 500 71.9778V78.4044H460.398ZM460.398 65.5512C462.739 60.9734 467.503 57.8393 472.999 57.8393C478.495 57.8393 483.259 60.9734 485.6 65.5512H460.398Z" fill="white"/>
<path fill-rule="evenodd" clip-rule="evenodd" d="M205.08 71.9778C205.08 57.0707 217.168 44.9861 232.08 44.9861C246.993 44.9861 259.081 57.0707 259.081 71.9778C259.081 86.8849 246.993 98.9695 232.08 98.9695C217.168 98.9695 205.08 86.8849 205.08 71.9778ZM232.08 57.8393C224.269 57.8393 217.937 64.1693 217.937 71.9778C217.937 79.7863 224.269 86.1163 232.08 86.1163C239.892 86.1163 246.224 79.7863 246.224 71.9778C246.224 64.1693 239.892 57.8393 232.08 57.8393Z" fill="#FF7A00"/>
</svg>
