<svg width="842" height="616" viewBox="0 0 842 616" fill="none" xmlns="http://www.w3.org/2000/svg">
<path d="M168 325L336.009 616H-0.00891113L168 325Z" fill="#FF7A00"/>
<path d="M306 308C306 182.087 408.096 80 534.056 80C605.959 80 670.071 113.221 711.934 165.301L774.287 115.18C717.889 45.0189 631.216 0 534.056 0C363.929 0 226 137.888 226 308C226 478.112 363.929 616 534.056 616C701.143 616 837.161 483.006 841.979 317.084L842 317V311H645V391H746.532C713.336 475.871 630.719 536 534.056 536C408.096 536 306 433.913 306 308Z" fill="white"/>
<path d="M484.009 238C484.009 210.386 506.395 188 534.009 188C561.623 188 584.009 210.386 584.009 238C584.009 265.614 561.623 288 534.009 288C506.395 288 484.009 265.614 484.009 238Z" fill="white"/>
</svg>
