<svg width="260" height="51" viewBox="0 0 260 51" fill="none" xmlns="http://www.w3.org/2000/svg">
<path d="M44.634 6.62091C34.107 6.62091 25.5744 15.0698 25.5744 25.4905C25.5744 35.9113 34.107 44.3601 44.634 44.3601C52.7126 44.3601 59.6172 39.3837 62.3915 32.3597H53.9061V25.7388H70.3702V26.2354L70.3685 26.2423C69.9658 39.9742 58.5982 50.981 44.634 50.981C30.4158 50.981 18.8885 39.5692 18.8885 25.4905C18.8885 11.4118 30.4158 0 44.634 0C52.7541 0 59.9978 3.72583 64.7111 9.53244L59.5 13.6805C56.0014 9.37036 50.6432 6.62091 44.634 6.62091Z" fill="black"/>
<path d="M28.0824 50.981L14.0412 26.8975L0 50.981H28.0824Z" fill="#FF7A00"/>
<path d="M40.4514 19.6972C40.4514 17.4118 42.3223 15.5591 44.6301 15.5591C46.9379 15.5591 48.8088 17.4118 48.8088 19.6972C48.8088 21.9826 46.9379 23.8353 44.6301 23.8353C42.3223 23.8353 40.4514 21.9826 40.4514 19.6972Z" fill="black"/>
<path fill-rule="evenodd" clip-rule="evenodd" d="M88.4222 23.1732C80.6679 23.1732 74.3818 29.3982 74.3818 37.0771C74.3818 44.756 80.6679 50.981 88.4222 50.981C96.1766 50.981 102.463 44.756 102.463 37.0771C102.463 29.3982 96.1766 23.1732 88.4222 23.1732ZM81.0677 37.0771C81.0677 33.0548 84.3604 29.7941 88.4222 29.7941C92.484 29.7941 95.7767 33.0548 95.7767 37.0771C95.7767 41.0994 92.484 44.3601 88.4222 44.3601C84.3604 44.3601 81.0677 41.0994 81.0677 37.0771Z" fill="#FF7A00"/>
<path fill-rule="evenodd" clip-rule="evenodd" d="M138.901 37.0771C138.901 29.3982 145.187 23.1732 152.941 23.1732C160.696 23.1732 166.982 29.3982 166.982 37.0771C166.982 44.756 160.696 50.981 152.941 50.981C145.187 50.981 138.901 44.756 138.901 37.0771ZM152.941 29.7941C148.88 29.7941 145.587 33.0548 145.587 37.0771C145.587 41.0994 148.88 44.3601 152.941 44.3601C157.003 44.3601 160.296 41.0994 160.296 37.0771C160.296 33.0548 157.003 29.7941 152.941 29.7941Z" fill="#FF7A00"/>
<path d="M216.913 29.9218C214.994 29.5867 213.123 30.018 211.609 30.9995L211.601 31.0081L211.589 31.0203C211.44 31.1747 211.291 31.3642 211.194 31.5547C211.103 31.7331 211.091 31.8425 211.094 31.9088C211.096 31.9484 211.107 32.1747 211.432 32.6079L211.433 32.6093C211.457 32.6418 211.596 32.8287 212.351 33.0047C213.091 33.1773 213.944 33.2418 215.153 33.3331L215.745 33.3784C218.255 33.5724 222.646 33.912 225.286 37.6606C227.391 40.6495 226.89 43.6107 225.915 45.5787C225.454 46.5086 224.89 47.2346 224.461 47.718C224.241 47.965 224.044 48.1628 223.892 48.3069C223.873 48.3256 223.854 48.3434 223.835 48.3603L223.827 48.3683C223.778 48.4137 223.735 48.4529 223.698 48.4856C223.671 48.5089 223.648 48.5289 223.629 48.5457C223.619 48.5541 223.61 48.5617 223.602 48.5684L223.591 48.5779L223.583 48.5842C223.583 48.5842 223.583 48.5846 223.568 48.567C220.647 50.547 216.963 51.4442 213.198 50.7868C208.887 50.0341 205.384 47.4042 203.397 43.9084L209.223 40.6611C210.27 42.5033 212.103 43.8726 214.359 44.2665C216.199 44.5879 217.995 44.2044 219.474 43.3068C219.63 43.1262 219.794 42.9006 219.913 42.6614C220.038 42.4097 220.072 42.2254 220.07 42.0991C220.069 42.0114 220.053 41.8048 219.802 41.4477C219.178 40.5624 218.071 40.1995 215.171 39.975C215.017 39.9631 214.856 39.9513 214.688 39.939C213.547 39.8557 212.111 39.7506 210.819 39.4494C209.257 39.0853 207.397 38.3332 206.064 36.5555C205.035 35.1826 204.488 33.7143 204.416 32.2278C204.345 30.7679 204.741 29.5198 205.228 28.5663C205.709 27.625 206.308 26.9084 206.761 26.4397C206.994 26.1997 207.203 26.0088 207.365 25.8701C207.446 25.8003 207.517 25.7428 207.573 25.6977C207.586 25.6876 207.598 25.6781 207.609 25.6693C207.623 25.6583 207.636 25.6483 207.648 25.6393L207.664 25.6275L207.678 25.617L207.69 25.6075L207.696 25.6033L207.699 25.6012L207.7 25.6021L207.702 25.6054C207.704 25.6077 207.707 25.6112 207.711 25.6166C210.63 23.64 214.312 22.7446 218.074 23.4015C222.265 24.1332 225.693 26.6395 227.706 29.9905L221.959 33.3751C220.899 31.6097 219.107 30.3049 216.913 29.9218Z" fill="black"/>
<path fill-rule="evenodd" clip-rule="evenodd" d="M171.161 37.0771C171.161 29.3982 177.447 23.1732 185.201 23.1732C192.955 23.1732 199.242 29.3982 199.242 37.0771C199.242 44.756 192.955 50.981 185.201 50.981C177.447 50.981 171.161 44.756 171.161 37.0771ZM185.201 29.7941C181.139 29.7941 177.847 33.0548 177.847 37.0771C177.847 41.0994 181.139 44.3601 185.201 44.3601C189.263 44.3601 192.556 41.0994 192.556 37.0771C192.556 33.0548 189.263 29.7941 185.201 29.7941Z" fill="#FF7A00"/>
<path fill-rule="evenodd" clip-rule="evenodd" d="M239.407 40.3876C240.624 42.7457 243.102 44.3601 245.96 44.3601C247.395 44.3601 248.724 43.9564 249.851 43.2589L253.395 48.8729C251.237 50.2092 248.684 50.981 245.96 50.981C238.205 50.981 231.919 44.756 231.919 37.0771C231.919 29.3982 238.205 23.1732 245.96 23.1732C253.714 23.1732 260 29.3982 260 37.0771V40.3876H239.407ZM239.407 33.7666C240.624 31.4085 243.102 29.7941 245.96 29.7941C248.818 29.7941 251.295 31.4085 252.512 33.7666H239.407Z" fill="black"/>
<path fill-rule="evenodd" clip-rule="evenodd" d="M106.641 37.0771C106.641 29.3982 112.928 23.1732 120.682 23.1732C128.436 23.1732 134.722 29.3982 134.722 37.0771C134.722 44.756 128.436 50.981 120.682 50.981C112.928 50.981 106.641 44.756 106.641 37.0771ZM120.682 29.7941C116.62 29.7941 113.327 33.0548 113.327 37.0771C113.327 41.0994 116.62 44.3601 120.682 44.3601C124.744 44.3601 128.036 41.0994 128.036 37.0771C128.036 33.0548 124.744 29.7941 120.682 29.7941Z" fill="#FF7A00"/>
</svg>
