<svg width="24" height="25" viewBox="0 0 24 25" fill="none" xmlns="http://www.w3.org/2000/svg">
<g clip-path="url(#clip0_815_470)">
<path d="M18.2645 20.0293H18.8217C20.7674 20.0293 21.7403 19.0376 21.7403 17.0635V7.9585H16.1393C15.157 7.9585 14.5997 7.40123 14.5997 6.41895V0.742432H9.69774C7.75203 0.742432 6.76974 1.73419 6.76974 3.70819V4.171H7.9976C9.32939 4.171 10.3967 4.54879 11.4545 5.60667L16.8099 10.9809C17.8772 12.0482 18.2645 13.1438 18.2645 14.4284V20.0293ZM16.3282 6.77787H21.2868C21.2302 6.4756 21.0319 6.21113 20.7013 5.88057L16.6777 1.78137C16.3565 1.45082 16.0732 1.243 15.7804 1.19582L15.7898 6.23003C15.7898 6.61729 15.941 6.77787 16.3282 6.77787ZM4.92796 24.7424H14.0519C15.9976 24.7424 16.9799 23.7507 16.9799 21.7767V14.1733H10.1417C8.92323 14.1733 8.35653 13.5972 8.35653 12.3883V5.45552H4.92796C2.98229 5.45552 2 6.44727 2 8.42132V21.7767C2 23.7601 2.98229 24.7424 4.92796 24.7424ZM10.1322 12.8794H16.4793C16.3849 12.511 16.1298 12.171 15.7048 11.7365L10.7934 6.74007C10.3778 6.31506 10.0094 6.06002 9.65051 5.95613V12.3977C9.65051 12.7188 9.81106 12.8794 10.1322 12.8794Z" fill="black"/>
</g>
<defs>
<clipPath id="clip0_815_470">
<rect width="24" height="24" fill="white" transform="translate(0 0.742432)"/>
</clipPath>
</defs>
</svg>
