<svg width="24" height="25" viewBox="0 0 24 25" fill="none" xmlns="http://www.w3.org/2000/svg">
<path fill-rule="evenodd" clip-rule="evenodd" d="M0.40244 7.79237C-0.246112 9.14518 -0.0184477 10.7274 0.43688 13.8919L0.771404 16.2167C1.3563 20.2817 1.64875 22.3141 3.05883 23.5283C4.4689 24.7424 6.53684 24.7424 10.6727 24.7424H13.3273C17.4631 24.7424 19.5311 24.7424 20.9412 23.5283C22.3512 22.3141 22.6436 20.2817 23.2286 16.2167L23.5631 13.8919C24.0185 10.7274 24.2461 9.14518 23.5975 7.79237C22.949 6.43955 21.5686 5.61724 18.8077 3.9726L17.1458 2.98268C14.6388 1.48918 13.3852 0.742432 12 0.742432C10.6148 0.742432 9.36125 1.48918 6.8541 2.98268L5.19229 3.9726C2.43142 5.61724 1.05099 6.43955 0.40244 7.79237ZM13.74 18.1538C12.7706 17.1077 11.2297 17.1077 10.2604 18.1538C9.92256 18.5185 9.35312 18.5402 8.98849 18.2024C8.62387 17.8645 8.60214 17.2951 8.93995 16.9306C10.6217 15.1154 13.3787 15.1154 15.0604 16.9306C15.3982 17.2951 15.3764 17.8645 15.0119 18.2024C14.6472 18.5402 14.0778 18.5185 13.74 18.1538ZM7.86034 15.563C10.1551 13.0861 13.8451 13.0861 16.1399 15.563C16.4778 15.9277 17.0472 15.9494 17.4118 15.6116C17.7764 15.2738 17.7982 14.7043 17.4604 14.3398C14.4532 11.0939 9.54708 11.0939 6.53994 14.3398C6.20213 14.7043 6.22386 15.2738 6.58848 15.6116C6.9531 15.9494 7.52253 15.9277 7.86034 15.563ZM18.5399 12.9728C14.9196 9.06528 9.08059 9.06528 5.46032 12.9728C5.12251 13.3375 4.55307 13.3592 4.18845 13.0214C3.82383 12.6836 3.8021 12.1141 4.13991 11.7496C8.47255 7.07306 15.5276 7.07306 19.8604 11.7496C20.1982 12.1141 20.1764 12.6836 19.8118 13.0214C19.4472 13.3592 18.8777 13.3375 18.5399 12.9728Z" fill="#171918"/>
</svg>
