<svg width="24" height="25" viewBox="0 0 24 25" fill="none" xmlns="http://www.w3.org/2000/svg">
<path fill-rule="evenodd" clip-rule="evenodd" d="M11.9998 0.742432C7.3607 0.742432 3.59994 4.24242 3.59994 8.55988C3.59994 12.8435 6.28089 17.842 10.4637 19.6297C11.4388 20.0463 12.5608 20.0463 13.5359 19.6297C17.7187 17.842 20.3997 12.8435 20.3997 8.55988C20.3997 4.24242 16.6389 0.742432 11.9998 0.742432ZM14.3998 9.1423C14.3998 10.4678 13.3253 11.5423 11.9998 11.5423C10.6743 11.5423 9.59985 10.4678 9.59985 9.1423C9.59985 7.81684 10.6743 6.74234 11.9998 6.74234C13.3253 6.74234 14.3998 7.81684 14.3998 9.1423Z" fill="#171918"/>
<path d="M23.9996 19.3425C23.9996 22.3248 18.6271 24.7424 11.9998 24.7424C5.3725 24.7424 0 22.3248 0 19.3425C0 17.8226 1.39552 16.4492 3.64144 15.468C5.01191 17.9829 7.10182 20.1507 9.75645 21.2852C11.1833 21.895 12.8163 21.895 14.2432 21.2852C16.8978 20.1507 18.9877 17.9829 20.3582 15.468C22.604 16.4492 23.9996 17.8226 23.9996 19.3425Z" fill="#171918"/>
</svg>
