<svg width="24" height="25" viewBox="0 0 24 25" fill="none" xmlns="http://www.w3.org/2000/svg">
<path d="M23.0648 8.74243H19.5945L18.855 4.08243C18.5514 2.64603 17.5243 1.50143 16.1812 1.10243C15.5188 0.877632 14.8289 0.756432 14.1332 0.742432H9.88545C9.18969 0.756432 8.49982 0.877632 7.83744 1.10243C6.49429 1.50143 5.46725 2.64603 5.16365 4.08243L4.42409 8.74243H0.953857C0.430287 8.73903 0.00323972 9.18403 1.60013e-05 9.73643C-0.00055289 9.84023 0.0140487 9.94343 0.043631 10.0424L3.60868 22.6424C3.98112 23.8916 5.07889 24.7416 6.3204 24.7424H17.6982C18.9327 24.733 20.0206 23.8846 20.391 22.6424L23.956 10.0424C24.1132 9.51563 23.8356 8.95423 23.3361 8.78843C23.2483 8.75923 23.1569 8.74383 23.0648 8.74243ZM6.35832 8.74243L7.04099 4.40243C7.19402 3.67743 7.74945 3.12343 8.44426 3.00243C8.91132 2.84723 9.39601 2.75983 9.88545 2.74243H14.1332C14.6289 2.75803 15.1202 2.84543 15.5933 3.00243C16.2881 3.12343 16.8436 3.67743 16.9966 4.40243L17.6603 8.74243H6.28247H6.35832Z" fill="black"/>
</svg>
